<?xml version="1.0" encoding="UTF-8"?>
<!-- Generated by Pixelmator Pro 3.1.1 -->
<svg width="500" height="500" viewBox="0 0 500 500" xmlns="http://www.w3.org/2000/svg" xmlns:xlink="http://www.w3.org/1999/xlink">
    <path id="Atom" fill="#0369a1" fill-rule="evenodd" stroke="none" d="M 406.405243 250 C 458.782684 299 484.344086 346.914734 468.197388 375 C 452.050659 403.085266 398.154388 404.44574 329.705536 383.401154 C 313.634094 453.451508 285.297272 500 253 500 C 220.702728 500 192.348557 453.467102 176.275192 383.406982 C 107.835953 404.44574 53.949318 403.08136 37.80262 375 C 21.655922 346.91864 47.213505 299.001953 99.594727 250 C 47.217327 201.000031 21.655922 153.085266 37.80262 125 C 53.949318 96.914734 107.845619 95.55426 176.294449 116.598877 C 192.365936 46.548462 220.702728 0 253 0 C 285.297272 0 313.651428 46.532898 329.724823 116.592957 C 398.164001 95.55426 452.050659 96.91861 468.197388 125 C 484.344086 153.08139 458.786499 200.998047 406.405243 250 Z M 451.481323 365.310059 C 463.887604 343.734497 439.976379 304.298462 392.885345 262.156982 C 376.59198 276.203003 359.530945 289.325439 341.781799 301.463135 C 340.187836 322.970154 337.399719 344.370941 333.430542 365.565857 C 393.313843 385.443787 439.076965 386.883667 451.481323 365.310059 Z M 184.468201 185.184113 C 191.996628 180.412811 199.721909 175.724152 207.644073 171.118225 C 215.580399 166.517456 223.499344 162.170502 231.38356 158.007782 C 217.230621 151.439941 203.413467 145.624054 190.138641 140.647278 C 187.797531 154.686035 185.880966 169.585266 184.468201 185.184113 Z M 217.294296 187.897247 C 205.29715 194.853333 193.772888 201.972229 182.721497 209.253876 C 181.991974 222.490295 181.588577 236.089142 181.588577 250 C 181.588577 263.910858 181.990036 277.519409 182.721497 290.742249 C 193.769043 297.994171 205.29332 305.113037 217.294296 312.098846 C 229.291412 319.054871 241.193298 325.514862 253 331.478668 C 264.77713 325.498047 276.679016 319.038116 288.705719 312.098846 C 300.70285 305.142761 312.227112 298.023865 323.278473 290.742249 C 324.008026 277.519409 324.411469 263.910858 324.411469 250 C 324.411469 236.089142 324.009979 222.480591 323.278473 209.257721 C 312.230957 202.005829 300.706696 194.886963 288.705719 187.901184 C 276.708588 180.945099 264.806671 174.485168 253 168.521332 C 241.22287 174.498077 229.320969 180.958008 217.294296 187.901184 Z M 162.822815 222.815857 C 150.084534 231.841095 138.191681 240.955444 127.256042 250.013535 C 138.185837 259.06781 150.111572 268.174377 162.849792 277.195709 C 162.498581 268.257751 162.288193 259.199646 162.288193 250 C 162.288193 240.800385 162.481201 231.748077 162.822815 222.819763 Z M 321.531799 314.811981 C 314.003418 319.583313 306.278107 324.271942 298.355927 328.877869 C 290.419586 333.478699 282.500641 337.825562 274.616455 341.988403 C 288.769379 348.556244 302.586517 354.37207 315.861389 359.348846 C 318.202484 345.313995 320.119019 330.414703 321.531799 314.815887 Z M 343.177185 277.176392 C 355.915436 268.151154 367.80835 259.036804 378.743958 249.978714 C 367.814148 240.924408 355.888428 231.817841 343.150177 222.796539 C 343.501434 231.738373 343.711792 240.796539 343.711792 249.996094 C 343.711792 259.19574 343.518829 268.251953 343.177185 277.180237 Z M 253 480.620148 C 277.806763 480.620148 299.637451 439.728668 312.433624 377.713135 C 292.162994 370.561523 272.30545 362.279968 252.953705 352.906982 C 233.622269 362.272522 213.7883 370.553955 193.543213 377.713135 C 206.343216 439.744171 228.189331 480.620148 253 480.620148 Z M 231.344955 341.992218 C 223.470413 337.834595 215.570114 333.464478 207.644073 328.881775 C 199.718063 324.299133 191.99791 319.614319 184.483627 314.827515 C 185.896393 330.40506 187.764709 345.341095 190.115479 359.362427 C 203.382553 354.389526 217.203583 348.55426 231.344955 341.992218 Z M 54.518639 365.310059 C 66.921135 386.881805 112.668785 385.44577 172.548279 365.571716 C 168.601578 344.382751 165.830902 322.989929 164.249084 301.492249 C 146.492111 289.351685 129.423325 276.226013 113.122368 262.176331 C 66.042923 304.310059 42.114285 343.738342 54.518639 365.310059 Z M 54.518639 134.68988 C 42.112408 156.265503 66.023598 195.701538 113.114639 237.842987 C 129.40802 223.796997 146.46907 210.674561 164.218216 198.536865 C 165.812164 177.029877 168.600281 155.629059 172.569489 134.434113 C 112.68615 114.556213 66.923004 113.116333 54.518639 134.68988 Z M 253 19.379852 C 228.193237 19.379852 206.362549 60.271301 193.566391 122.286865 C 213.837021 129.438477 233.694565 137.720062 253.04628 147.093018 C 272.377716 137.727478 292.2117 129.446045 312.456787 122.286865 C 299.656769 60.255829 277.810669 19.379852 253 19.379852 Z M 274.655029 158.007782 C 282.529602 162.165375 290.429871 166.535522 298.355927 171.118225 C 306.281952 175.700928 314.002106 180.385651 321.516388 185.172516 C 320.103607 169.59494 318.235291 154.658905 315.884521 140.637573 C 302.617432 145.610504 288.796417 151.44574 274.655029 158.007782 Z M 451.481323 134.68988 C 439.078857 113.118195 393.331238 114.55423 333.451721 134.428284 C 337.398468 155.617249 340.169128 177.010071 341.750946 198.507751 C 359.507904 210.648315 376.57663 223.773987 392.877655 237.823669 C 439.957062 195.689972 463.885712 156.261658 451.481323 134.68988 Z M 253 279.069763 C 237.011032 279.069763 224.049408 266.05481 224.049408 250 C 224.049408 233.94519 237.011032 220.930237 253 220.930237 C 268.988953 220.930237 281.950592 233.94519 281.950592 250 C 281.950592 266.05481 268.988953 279.069763 253 279.069763 Z"/>
    <text id="D" xml:space="preserve" x="143" y="351" font-family="Ubuntu" font-size="288" font-weight="700" fill="#2dd4bf">D</text>
</svg>
